<svg width="260" height="136" viewBox="0 0 260 136" fill="none" xmlns="http://www.w3.org/2000/svg">
<rect x="0.46875" y="0.140625" width="258.656" height="135.738" rx="20" fill="#7A4BFF"/>
<path d="M97.4964 100.164H94.4027L89.4339 93.2734C88.2152 94.3672 86.9183 95.3984 85.5433 96.3672C84.1995 97.3047 82.7777 98.1328 81.2777 98.8516C79.7777 99.5391 78.2308 100.086 76.637 100.492C75.0745 100.898 73.4808 101.102 71.8558 101.102C68.3245 101.102 64.9964 100.508 61.8714 99.3203C58.7777 98.1328 56.0589 96.4141 53.7152 94.1641C51.4027 91.8828 49.5745 89.1016 48.2308 85.8203C46.887 82.5391 46.2152 78.8047 46.2152 74.6172C46.2152 70.7109 46.887 67.1328 48.2308 63.8828C49.5745 60.6016 51.4027 57.7891 53.7152 55.4453C56.0589 53.1016 58.7777 51.2891 61.8714 50.0078C64.9964 48.6953 68.3245 48.0391 71.8558 48.0391C73.4808 48.0391 75.0902 48.2422 76.6839 48.6484C78.2777 49.0547 79.8245 49.6172 81.3245 50.3359C82.8245 51.0547 84.2464 51.8984 85.5902 52.8672C86.9652 53.8359 88.2464 54.8828 89.4339 56.0078L94.4027 50.0547H97.4964V100.164ZM84.6058 74.6172C84.6058 72.8672 84.262 71.1797 83.5745 69.5547C82.9183 67.8984 82.012 66.4453 80.8558 65.1953C79.6995 63.9141 78.3402 62.8984 76.7777 62.1484C75.2464 61.3672 73.6058 60.9766 71.8558 60.9766C70.1058 60.9766 68.4495 61.2734 66.887 61.8672C65.3558 62.4609 64.012 63.3359 62.8558 64.4922C61.7308 65.6484 60.8402 67.0859 60.1839 68.8047C59.5277 70.4922 59.1995 72.4297 59.1995 74.6172C59.1995 76.8047 59.5277 78.7578 60.1839 80.4766C60.8402 82.1641 61.7308 83.5859 62.8558 84.7422C64.012 85.8984 65.3558 86.7734 66.887 87.3672C68.4495 87.9609 70.1058 88.2578 71.8558 88.2578C73.6058 88.2578 75.2464 87.8828 76.7777 87.1328C78.3402 86.3516 79.6995 85.3359 80.8558 84.0859C82.012 82.8047 82.9183 81.3516 83.5745 79.7266C84.262 78.0703 84.6058 76.3672 84.6058 74.6172ZM123.064 100.164H110.173V29.9922H123.064V100.164ZM160.913 100.164C157.819 100.164 154.913 99.5859 152.194 98.4297C149.475 97.2422 147.085 95.6328 145.022 93.6016C142.991 91.5391 141.381 89.1484 140.194 86.4297C139.038 83.7109 138.46 80.8047 138.46 77.7109V62.8047H132.225V50.0547H138.46V29.9922H151.21V50.0547H170.616V62.8047H151.21V77.7109C151.21 79.0547 151.46 80.3203 151.96 81.5078C152.46 82.6641 153.147 83.6797 154.022 84.5547C154.897 85.4297 155.928 86.1328 157.116 86.6641C158.303 87.1641 159.569 87.4141 160.913 87.4141H170.616V100.164H160.913ZM193.511 100.164H180.715V49.9609H183.808L188.027 55.9141C190.09 54.0391 192.433 52.6016 195.058 51.6016C197.683 50.5703 200.402 50.0547 203.215 50.0547H214.511V62.8047H203.215C201.871 62.8047 200.605 63.0547 199.418 63.5547C198.23 64.0547 197.199 64.7422 196.324 65.6172C195.449 66.4922 194.761 67.5234 194.261 68.7109C193.761 69.8984 193.511 71.1641 193.511 72.5078V100.164Z" fill="white"/>
</svg>
