<svg width="821" height="186" viewBox="0 0 821 186" fill="none" xmlns="http://www.w3.org/2000/svg">
<rect x="0.257812" y="0.882812" width="820.609" height="184.414" rx="20" fill="#38CA9E"/>
<path d="M52.4172 128.031V60.8312H88.3212C97.6012 60.8312 104.449 62.4952 108.865 65.8232C113.281 69.0872 115.489 73.2792 115.489 78.3992C115.489 81.7912 114.529 84.8312 112.609 87.5192C110.753 90.1432 108.033 92.2232 104.449 93.7592C100.865 95.2952 96.4492 96.0632 91.2012 96.0632L93.1212 90.8792C98.3692 90.8792 102.881 91.6152 106.657 93.0872C110.497 94.5592 113.441 96.7032 115.489 99.5192C117.601 102.271 118.657 105.599 118.657 109.503C118.657 115.327 116.225 119.871 111.361 123.135C106.561 126.399 99.5212 128.031 90.2412 128.031H52.4172ZM74.6892 112.191H88.3212C90.8172 112.191 92.6732 111.743 93.8892 110.847C95.1692 109.951 95.8092 108.639 95.8092 106.911C95.8092 105.183 95.1692 103.871 93.8892 102.975C92.6732 102.079 90.8172 101.631 88.3212 101.631H73.1532V86.6552H85.2492C87.8092 86.6552 89.6652 86.2392 90.8172 85.4072C92.0332 84.5112 92.6412 83.2632 92.6412 81.6632C92.6412 79.9992 92.0332 78.7512 90.8172 77.9192C89.6652 77.0872 87.8092 76.6712 85.2492 76.6712H74.6892V112.191ZM122.251 128.031L151.627 60.8312H173.899L203.275 128.031H179.851L158.155 71.5833H166.987L145.291 128.031H122.251ZM139.723 116.319L145.483 99.9992H176.395L182.155 116.319H139.723ZM234.827 129.567C229.195 129.567 223.755 128.927 218.507 127.647C213.259 126.367 208.939 124.703 205.547 122.655L212.843 106.143C216.043 107.999 219.595 109.503 223.499 110.655C227.467 111.743 231.307 112.287 235.019 112.287C237.195 112.287 238.891 112.159 240.107 111.903C241.387 111.583 242.315 111.167 242.891 110.655C243.467 110.079 243.755 109.407 243.755 108.639C243.755 107.423 243.083 106.463 241.739 105.759C240.395 105.055 238.603 104.479 236.363 104.031C234.187 103.519 231.787 103.007 229.163 102.495C226.539 101.919 223.883 101.183 221.195 100.287C218.571 99.3912 216.139 98.2072 213.899 96.7352C211.723 95.2632 209.963 93.3432 208.619 90.9752C207.275 88.5432 206.603 85.5352 206.603 81.9512C206.603 77.7912 207.755 74.0152 210.059 70.6232C212.427 67.1672 215.915 64.4152 220.523 62.3672C225.195 60.3192 230.987 59.2952 237.899 59.2952C242.443 59.2952 246.923 59.7752 251.339 60.7352C255.755 61.6952 259.723 63.1672 263.243 65.1512L256.427 81.5672C253.099 79.9032 249.867 78.6552 246.731 77.8232C243.659 76.9912 240.651 76.5752 237.707 76.5752C235.531 76.5752 233.803 76.7672 232.523 77.1512C231.243 77.5352 230.315 78.0472 229.739 78.6873C229.227 79.3272 228.971 80.0312 228.971 80.7992C228.971 81.9512 229.643 82.8792 230.987 83.5832C232.331 84.2232 234.091 84.7672 236.267 85.2152C238.507 85.6632 240.939 86.1432 243.563 86.6552C246.251 87.1672 248.907 87.8712 251.531 88.7672C254.155 89.6632 256.555 90.8472 258.731 92.3192C260.971 93.7912 262.763 95.7112 264.107 98.0792C265.451 100.447 266.123 103.391 266.123 106.911C266.123 111.007 264.939 114.783 262.571 118.239C260.267 121.631 256.811 124.383 252.203 126.495C247.595 128.543 241.803 129.567 234.827 129.567ZM275.745 128.031V60.8312H298.401V128.031H275.745ZM346.939 129.567C341.563 129.567 336.571 128.735 331.963 127.071C327.419 125.343 323.451 122.911 320.059 119.775C316.731 116.639 314.139 112.927 312.283 108.639C310.427 104.351 309.499 99.6152 309.499 94.4312C309.499 89.2472 310.427 84.5112 312.283 80.2232C314.139 75.9352 316.731 72.2232 320.059 69.0872C323.451 65.9512 327.419 63.5512 331.963 61.8872C336.571 60.1592 341.563 59.2952 346.939 59.2952C353.531 59.2952 359.355 60.4472 364.411 62.7512C369.531 65.0552 373.755 68.3832 377.083 72.7352L362.779 85.5032C360.795 83.0072 358.587 81.0872 356.155 79.7432C353.787 78.3352 351.099 77.6312 348.091 77.6312C345.723 77.6312 343.579 78.0152 341.659 78.7832C339.739 79.5512 338.075 80.6712 336.667 82.1432C335.323 83.6152 334.267 85.4072 333.499 87.5192C332.731 89.5672 332.347 91.8712 332.347 94.4312C332.347 96.9912 332.731 99.3272 333.499 101.439C334.267 103.487 335.323 105.247 336.667 106.719C338.075 108.191 339.739 109.311 341.659 110.079C343.579 110.847 345.723 111.231 348.091 111.231C351.099 111.231 353.787 110.559 356.155 109.215C358.587 107.807 360.795 105.855 362.779 103.359L377.083 116.127C373.755 120.415 369.531 123.743 364.411 126.111C359.355 128.415 353.531 129.567 346.939 129.567ZM443.222 129.567C437.59 129.567 432.15 128.927 426.902 127.647C421.654 126.367 417.334 124.703 413.942 122.655L421.238 106.143C424.438 107.999 427.99 109.503 431.894 110.655C435.862 111.743 439.702 112.287 443.414 112.287C445.59 112.287 447.286 112.159 448.502 111.903C449.782 111.583 450.71 111.167 451.286 110.655C451.862 110.079 452.15 109.407 452.15 108.639C452.15 107.423 451.478 106.463 450.134 105.759C448.79 105.055 446.998 104.479 444.758 104.031C442.582 103.519 440.182 103.007 437.558 102.495C434.934 101.919 432.278 101.183 429.59 100.287C426.966 99.3912 424.534 98.2072 422.294 96.7352C420.118 95.2632 418.358 93.3432 417.014 90.9752C415.67 88.5432 414.998 85.5352 414.998 81.9512C414.998 77.7912 416.15 74.0152 418.454 70.6232C420.822 67.1672 424.31 64.4152 428.918 62.3672C433.59 60.3192 439.382 59.2952 446.294 59.2952C450.838 59.2952 455.318 59.7752 459.734 60.7352C464.15 61.6952 468.118 63.1672 471.638 65.1512L464.822 81.5672C461.494 79.9032 458.262 78.6552 455.126 77.8232C452.054 76.9912 449.046 76.5752 446.102 76.5752C443.926 76.5752 442.198 76.7672 440.918 77.1512C439.638 77.5352 438.71 78.0472 438.134 78.6873C437.622 79.3272 437.366 80.0312 437.366 80.7992C437.366 81.9512 438.038 82.8792 439.382 83.5832C440.726 84.2232 442.486 84.7672 444.662 85.2152C446.902 85.6632 449.334 86.1432 451.958 86.6552C454.646 87.1672 457.302 87.8712 459.926 88.7672C462.55 89.6632 464.95 90.8472 467.126 92.3192C469.366 93.7912 471.158 95.7112 472.502 98.0792C473.846 100.447 474.518 103.391 474.518 106.911C474.518 111.007 473.334 114.783 470.966 118.239C468.662 121.631 465.206 124.383 460.598 126.495C455.99 128.543 450.198 129.567 443.222 129.567ZM500.013 128.031V98.5592L505.197 112.095L474.669 60.8312H498.573L519.213 95.8712H505.293L526.125 60.8312H548.013L517.677 112.095L522.669 98.5592V128.031H500.013ZM553.77 128.031V60.8312H572.394L606.57 101.727H597.93V60.8312H620.01V128.031H601.386L567.21 87.1352H575.85V128.031H553.77ZM648.398 128.031V78.3992H628.718V60.8312H690.734V78.3992H671.054V128.031H648.398ZM743.082 60.8312H765.738V128.031H743.082V60.8312ZM722.154 128.031H699.498V60.8312H722.154V128.031ZM744.618 103.263H720.618V84.6392H744.618V103.263Z" fill="white"/>
</svg>
